<?xml version="1.0" encoding="utf-8"?>
<!-- Generator: Adobe Illustrator 21.1.0, SVG Export Plug-In . SVG Version: 6.00 Build 0)  -->
<svg version="1.1" xmlns="http://www.w3.org/2000/svg" xmlns:xlink="http://www.w3.org/1999/xlink" x="0px" y="0px"
	 viewBox="0 0 439.4 467.7" style="enable-background:new 0 0 439.4 467.7;" xml:space="preserve">
<style type="text/css">
	.st0{fill:#A5D0A8;}
	.st1{clip-path:url(#SVGID_2_);}
	.st2{clip-path:url(#SVGID_4_);}
	.st3{fill-rule:evenodd;clip-rule:evenodd;fill:#FFFFFF;}
	.st4{fill:#FFFBDC;stroke:#000000;stroke-width:4;stroke-miterlimit:10;}
	.st5{fill:#B9D6F2;}
	.st6{fill:#F9E500;}
	.st7{fill:#067F93;}
	.st8{fill:#FCFCFC;}
	.st9{fill-rule:evenodd;clip-rule:evenodd;fill:#037171;}
	.st10{fill:#037171;}
	.st11{fill-rule:evenodd;clip-rule:evenodd;fill:#A5D0A8;}
	.st12{fill-rule:evenodd;clip-rule:evenodd;fill:#00303C;}
	.st13{fill-rule:evenodd;clip-rule:evenodd;fill:#FFFF00;}
	.st14{fill-rule:evenodd;clip-rule:evenodd;fill:#B9D6F2;}
	.st15{fill:none;stroke:#000000;stroke-width:5.669;stroke-miterlimit:10;}
	.st16{opacity:0;}
	.st17{fill:#FFFFFF;}
	.st18{fill:url(#);}
	.st19{fill-rule:evenodd;clip-rule:evenodd;fill:url(#);}
	.st20{fill:none;stroke:#000000;stroke-width:31;stroke-linecap:square;stroke-miterlimit:10;}
	.st21{fill:none;stroke:#000000;stroke-width:3;stroke-miterlimit:10;}
	.st22{fill:none;stroke:#000000;stroke-width:2.835;stroke-linejoin:round;stroke-miterlimit:10;}
	.st23{fill:none;stroke:#000000;stroke-width:1.984;stroke-miterlimit:10;}
	.st24{fill:#E2E1E1;}
	.st25{fill:none;stroke:#00303C;stroke-width:6;stroke-miterlimit:10;}
	.st26{fill:#E2E1E1;stroke:#000000;stroke-width:6;stroke-miterlimit:10;}
	.st27{fill:none;stroke:#00303C;stroke-width:4.4694;stroke-miterlimit:10;}
	.st28{fill:#FFFFFF;stroke:#00303C;stroke-width:4.4694;stroke-miterlimit:10;}
	.st29{fill:none;}
	.st30{fill:#00303C;}
	.st31{fill:#3C3C3B;}
	.st32{fill:#FFFBDC;stroke:#00303C;stroke-width:5;stroke-miterlimit:10;}
	.st33{fill:#00303C;stroke:#00303C;stroke-width:4.4694;stroke-miterlimit:10;}
	.st34{clip-path:url(#SVGID_12_);}
	.st35{clip-path:url(#SVGID_14_);}
</style>
<g id="Ebene_1">
</g>
<g id="Ebene_4">
</g>
<g id="Ebene_3">
	<g>
		<rect x="74" y="182.5" class="st4" width="291.3" height="189.8"/>
		<g>
			<path class="st28" d="M257.1,238.4L205.7,250c-1.1,0.2-2-0.8-1.8-1.9l12.2-52c0.1-0.3,0.2-0.5,0.4-0.7l82.8-85.2l14-14.4
				c0.6-0.6,1.5-0.6,2.1,0l39.3,40.4c0.6,0.6,0.6,1.6,0,2.2L257.9,238C257.7,238.2,257.4,238.4,257.1,238.4z"/>
			<polygon class="st0" points="218.6,196.1 260.4,238 340.5,155.5 297.6,114.5 			"/>
			<line class="st28" x1="230.8" y1="209.7" x2="309.4" y2="128.9"/>
			<line class="st28" x1="244.4" y1="224.8" x2="325.5" y2="141.3"/>
		</g>
		<polygon class="st27" points="216.1,196.1 257.9,238 338,155.5 295.1,114.5 		"/>
		<polygon class="st27" points="216.1,196.1 257.9,238 338,155.5 295.1,114.5 		"/>
	</g>
</g>
<g id="Ebene_2">
</g>
</svg>
