<?xml version="1.0" encoding="utf-8"?>
<!-- Generator: Adobe Illustrator 21.1.0, SVG Export Plug-In . SVG Version: 6.00 Build 0)  -->
<svg version="1.1" xmlns="http://www.w3.org/2000/svg" xmlns:xlink="http://www.w3.org/1999/xlink" x="0px" y="0px"
	 viewBox="0 0 595.3 467.7" style="enable-background:new 0 0 595.3 467.7;" xml:space="preserve">
<style type="text/css">
	.st0{fill:#A5D0A8;}
	.st1{clip-path:url(#SVGID_2_);}
	.st2{clip-path:url(#SVGID_4_);}
	.st3{fill-rule:evenodd;clip-rule:evenodd;fill:#FFFFFF;}
	.st4{fill:#FFFBDC;stroke:#000000;stroke-width:4;stroke-miterlimit:10;}
	.st5{fill:#B9D6F2;}
	.st6{fill:#F9E500;}
	.st7{fill:#067F93;}
	.st8{fill:#FCFCFC;}
	.st9{fill-rule:evenodd;clip-rule:evenodd;fill:#037171;}
	.st10{fill:#037171;}
	.st11{fill-rule:evenodd;clip-rule:evenodd;fill:#A5D0A8;}
	.st12{fill-rule:evenodd;clip-rule:evenodd;fill:#00303C;}
	.st13{fill-rule:evenodd;clip-rule:evenodd;fill:#FFFF00;}
	.st14{fill-rule:evenodd;clip-rule:evenodd;fill:#B9D6F2;}
	.st15{fill:none;stroke:#000000;stroke-width:5.669;stroke-miterlimit:10;}
	.st16{opacity:0;}
	.st17{fill:#FFFFFF;}
	.st18{fill:url(#);}
	.st19{fill-rule:evenodd;clip-rule:evenodd;fill:url(#);}
	.st20{fill:none;stroke:#000000;stroke-width:31;stroke-linecap:square;stroke-miterlimit:10;}
	.st21{fill:none;stroke:#000000;stroke-width:3;stroke-miterlimit:10;}
	.st22{fill:none;stroke:#000000;stroke-width:2.835;stroke-linejoin:round;stroke-miterlimit:10;}
	.st23{fill:none;stroke:#000000;stroke-width:1.984;stroke-miterlimit:10;}
	.st24{fill:#E2E1E1;}
	.st25{fill:none;stroke:#00303C;stroke-width:6;stroke-miterlimit:10;}
	.st26{fill:#E2E1E1;stroke:#000000;stroke-width:6;stroke-miterlimit:10;}
	.st27{fill:none;stroke:#00303C;stroke-width:4.4694;stroke-miterlimit:10;}
	.st28{fill:#FFFFFF;stroke:#00303C;stroke-width:4.4694;stroke-miterlimit:10;}
	.st29{fill:none;}
	.st30{fill:#00303C;}
	.st31{fill:#3C3C3B;}
	.st32{fill:#FFFBDC;stroke:#00303C;stroke-width:5;stroke-miterlimit:10;}
	.st33{fill:#00303C;stroke:#00303C;stroke-width:4.4694;stroke-miterlimit:10;}
	.st34{clip-path:url(#SVGID_12_);}
	.st35{clip-path:url(#SVGID_14_);}
</style>
<g id="Ebene_1">
</g>
<g id="Ebene_4">
</g>
<g id="Ebene_3">
</g>
<g id="Ebene_2">
	<g>
		<g>
			<g>
				<defs>
					<rect id="SVGID_60_" x="184.8" y="80.8" width="321" height="321"/>
				</defs>
				<clipPath id="SVGID_2_">
					<use xlink:href="#SVGID_60_"  style="overflow:visible;"/>
				</clipPath>
			</g>
			<path class="st32" d="M419.9,127.8v104.7c0,3.9-3.2,7.1-7.1,7.1H270.1c-3.9,0-7.1-3.2-7.1-7.1V127.8c0-3.9,3.2-7.1,7.1-7.1h142.8
				C416.8,120.8,419.9,123.9,419.9,127.8z"/>
			<path class="st30" d="M498.7,319.3H191.9c-3.9,0-7.1-3.2-7.1-7.1V169.4c0-3.9,3.2-7.1,7.1-7.1h306.8c3.9,0,7.1,3.2,7.1,7.1v142.8
				C505.8,316.1,502.6,319.3,498.7,319.3z"/>
			<path class="st0" d="M435.9,205.4h-6c-3.9,0-7.1-3.2-7.1-7.1v-6c0-3.9,3.2-7.1,7.1-7.1h6c3.9,0,7.1,3.2,7.1,7.1v6
				C443,202.2,439.8,205.4,435.9,205.4z"/>
			<path class="st24" d="M466.2,205.4h-6c-3.9,0-7.1-3.2-7.1-7.1v-6c0-3.9,3.2-7.1,7.1-7.1h6c3.9,0,7.1,3.2,7.1,7.1v6
				C473.3,202.2,470.1,205.4,466.2,205.4z"/>
			<path class="st32" d="M423.8,289.8v104.7c0,3.9-3.2,7.1-7.1,7.1H273.9c-3.9,0-7.1-3.2-7.1-7.1V289.8c0-3.9,3.2-7.1,7.1-7.1h142.8
				C420.6,282.7,423.8,285.9,423.8,289.8z"/>
		</g>
		<g>
			<g>
				<g>
					<path class="st33" d="M153.3,105.4c-1.7-1.1-3.3-2.1-4.9-3c-1.8-1.1-1.8-1.1-1-3.1c0.8-2.1,1.7-4.2,2.6-6.3
						c0.1-0.3,0.6-0.6,0.9-0.7c2.1-0.3,4.3-0.4,6.4-0.7c0.4-0.1,0.9-0.3,1.1-0.7c0.8-1,1.5-2.1,2.1-3.2c0.2-0.3,0.3-0.8,0.2-1.2
						c-0.4-2.1-0.9-4.2-1.4-6.3c-0.2-0.6,0-1,0.5-1.3c2.6-1.6,5.1-3.3,7.7-5c0.5-0.3,0.8-0.2,1.2,0.1c1.4,1.3,2.9,2.5,4.4,3.7
						c0.3,0.3,0.8,0.5,1.2,0.4c1.4-0.1,2.8-0.3,4.2-0.5c0.3-0.1,0.7-0.3,0.9-0.6c1.2-2,2.3-4.1,3.4-6.1c0.3-0.6,0.6-0.8,1.4-0.6
						c3.1,0.9,6.1,1.7,9.2,2.5c0.6,0.2,0.8,0.5,0.9,1.1c0.2,2,0.4,4.1,0.7,6.1c0.1,0.4,0.3,0.9,0.6,1.2c0.9,0.9,1.9,1.7,2.8,2.6
						c0.4,0.4,0.8,0.5,1.4,0.3c2.3-0.7,4.7-1.3,7-2c0.5-0.2,0.8-0.1,1.1,0.4c1.6,2.8,3.3,5.6,5,8.3c0.3,0.5,0.2,0.8-0.1,1.2
						c-1.5,1.9-3,3.8-4.4,5.8c-0.3,0.4-0.3,1-0.3,1.4c0,0.6,0.3,1.1,0.4,1.7c0.1,2,1.2,3.1,2.9,4c1.3,0.7,2.4,1.6,3.7,2.3
						c0.5,0.3,0.7,0.6,0.5,1.2c-0.8,2.6-1.5,5.3-2.2,7.9c-0.2,0.6-0.5,0.8-1,0.9c-2.2,0.4-4.4,0.8-6.6,1.3c-0.5,0.1-1,0.5-1.4,0.9
						c-0.3,0.3-0.5,0.7-0.7,1c-1.6,1.5-1.7,3.2-0.9,5.1c0.5,1.2,0.8,2.6,1.2,3.9c0.2,0.5,0.1,0.9-0.4,1.2c-2.7,1.6-5.4,3.3-8,5
						c-0.5,0.3-0.8,0.3-1.2-0.1c-1.5-1.5-3-3-4.6-4.5c-0.3-0.3-0.9-0.5-1.4-0.6c-1.3-0.1-2.7,0-4.1,0c-0.6,0-1,0.2-1.2,0.8
						c-1.3,2.5-2.6,4.9-3.9,7.3c-0.3,0.5-0.5,0.6-1.1,0.4c-2.8-0.9-5.7-1.7-8.5-2.6c-0.3-0.1-0.6-0.5-0.7-0.7
						c-0.2-2.4-0.2-4.7-0.4-7.1c0-0.3-0.2-0.7-0.5-0.9c-1.7-1.1-3.4-2.2-5.1-3.2c-0.3-0.2-0.8-0.1-1.1,0.1c-1.7,0.7-3.5,1.4-5.2,2.1
						c-0.5,0.2-0.8,0.2-1.2-0.3c-1.7-2.6-3.5-5.2-5.3-7.7c-0.4-0.6-0.4-1,0.1-1.5c1.4-1.5,2.7-3.1,4-4.7c0.3-0.4,0.5-1,0.4-1.4
						c-0.2-1.5-0.5-3-0.7-4.6C153.5,105.9,153.4,105.6,153.3,105.4z M191.2,115.7c1.9-1.6,3.4-3.6,4.4-5.9c3.9-9-1.4-18.9-11-20.3
						c-7.1-1.1-14.4,3.2-17.1,10c-2.2,5.8-0.8,12.3,3.4,16.1C176.3,120.7,185,121,191.2,115.7z"/>
					<path class="st33" d="M137.6,129.1c0.1,0.4,0.2,0.6,0.3,0.9c0.6,1.7,1.1,3.5,1.7,5.2c0.1,0.4,0.5,0.7,0.9,1
						c0.4,0.3,0.9,0.4,1.3,0.7c1.6,1.2,3.1,1,4.7,0c1.1-0.7,2.2-1.2,3.4-1.6c0.3-0.1,0.9-0.1,1.2,0.1c2,1.4,3.9,2.9,5.9,4.4
						c0.4,0.3,0.5,0.6,0.3,1.1c-0.7,1.9-1.4,3.7-1.9,5.6c-0.3,1-0.1,2.2-0.2,3.2c-0.2,2.2,0.8,3.2,2.9,3.6c1.3,0.2,2.4,0.8,3.7,1.2
						c0.5,0.2,0.8,0.4,0.7,1c-0.1,2.7-0.1,5.4-0.1,8c0,0.6-0.2,0.8-0.7,1c-1.8,0.5-3.6,0.9-5.4,1.5c-0.4,0.1-0.9,0.5-1.1,0.9
						c-0.7,1.1-1.2,2.3-1.8,3.5c-0.3,0.5-0.2,1,0.2,1.5c1,1.8,1.9,3.6,2.8,5.4c0.1,0.2,0,0.6-0.2,0.8c-1.7,2-3.5,4-5.3,6
						c-0.4,0.5-0.8,0.5-1.3,0.2c-2-1.2-4.1-2.4-6.1-3.7c-0.6-0.4-1.1-0.4-1.7,0c-0.3,0.2-0.6,0.5-1,0.6c-2.1,0.8-3.1,2.4-3.4,4.6
						c-0.1,1.1-0.6,2.3-0.8,3.4c-0.1,0.5-0.3,0.7-0.9,0.7c-2.9-0.1-5.7-0.1-8.6-0.1c-0.5,0-0.7-0.2-0.8-0.7
						c-0.5-1.8-0.9-3.7-1.5-5.5c-0.1-0.4-0.5-0.8-0.8-1c-2.3-1.4-4.6-1.5-7-0.2c-0.8,0.5-1.8,0.6-2.6,1c-0.8,0.4-1.4,0.2-2-0.4
						c-1.6-1.6-3.3-3.2-5-4.7c-0.4-0.4-0.5-0.7-0.2-1.2c0.9-1.7,1.7-3.4,2.5-5.1c0.2-0.4,0.2-1,0.1-1.4c-0.2-1-0.5-2-0.9-3
						c-0.2-0.4-0.6-0.8-1-1c-2-0.8-4-1.6-6-2.3c-0.6-0.2-0.8-0.5-0.8-1.1c0-2.8,0-5.7,0-8.5c0-0.7,0.2-0.9,0.8-1.1
						c2-0.5,4.1-1.1,6.1-1.7c0.6-0.2,0.9-0.5,1.1-1.1c1.2-2.6,1-5.1-0.6-7.4c-0.4-0.6-0.6-1.3-0.9-2c-0.3-0.6-0.3-0.9,0.2-1.4
						c2-2.1,4-4.1,6-6.3c0.4-0.5,0.8-0.5,1.3-0.1c1.8,1.1,3.6,2.1,5.4,3.1c0.3,0.2,0.9,0.2,1.3,0.1c1-0.4,1.9-0.9,2.8-1.3
						c0.9-0.3,1.3-0.9,1.5-1.7c0.5-1.5,1-3,1.5-4.5c0.1-0.5,0.4-0.6,0.9-0.6c2.8,0.1,5.6,0.2,8.4,0.2
						C137.2,129,137.5,129,137.6,129.1z"/>
					<path class="st33" d="M110.3,115.2c-0.7,0.6-1.4,1.1-2,1.7c-0.4,0.4-0.8,0.5-1.3,0.2c-2.1-1.1-4.2-2.1-6.4-3.1
						c-0.5-0.3-0.6-0.6-0.5-1.1c0.4-1.7,0.7-3.5,1-5.2c0.1-0.4-0.2-0.8-0.4-1.2c0,0,0,0-0.1-0.1c-1.5-1.9-3.4-2.5-5.8-2.3
						c-2.6,0.2-2.6,0-3.5-2.5c-0.6-1.7-1.2-3.3-1.8-5c-0.2-0.6-0.1-0.9,0.4-1.2c1.4-0.9,2.8-1.8,4.2-2.7c0.5-0.3,0.8-0.7,0.7-1.3
						c0-0.2,0-0.5,0-0.8c0.5-2-0.4-3.5-1.9-4.7c-0.7-0.6-1.6-1.2-1.8-2c-0.1-0.7,0.6-1.6,1.1-2.3c0.7-1.4,1.5-2.8,2.2-4.2
						c0.3-0.6,0.7-0.7,1.3-0.6c1.5,0.3,3,0.5,4.5,0.6c0.5,0,1-0.2,1.5-0.4c2.1-1.1,3-2.8,2.6-5.1c-0.4-2.2,0.4-3.5,2.6-4.2
						c1.2-0.4,2.3-1.1,3.4-1.7c0.5-0.3,0.9-0.2,1.3,0.2c1,1,2,2,3,3.1c1.3,1.5,3.1,1.7,4.7,2.4c0.2,0.1,0.6-0.2,0.8-0.4
						c1.2-1.1,2.4-2.3,3.5-3.4c0.4-0.4,0.7-0.4,1.1-0.2c2,1,4,2,6,3c0.4,0.2,0.6,0.5,0.5,1c-0.3,1.5-0.7,3-0.9,4.5
						c-0.1,0.4,0,0.9,0.3,1.3c1.2,2.1,2.6,3.7,5.4,3c0.8-0.2,1.8,0,2.7,0c0.5,0,0.8,0.2,1,0.7c0.8,2,1.6,4,2.4,6
						c0.2,0.5,0.1,0.8-0.4,1.1c-1.7,1.1-3.4,2.2-5.2,3.3c-0.5,0.3-0.6,0.7-0.6,1.2c-0.1,2.5,0.6,4.5,2.8,5.8
						c0.6,0.4,1.2,0.9,1.7,1.5c0.2,0.2,0.3,0.7,0.2,0.9c-1,2.1-2.2,4.2-3.2,6.3c-0.3,0.5-0.6,0.6-1.1,0.5c-1.5-0.3-3-0.6-4.4-0.9
						c-0.4-0.1-0.8,0.2-1.2,0.3c0,0,0,0-0.1,0.1c-1.8,1.2-2.8,2.8-2.7,5c0,0.9-0.2,1.8-0.3,2.7c0,0.5-0.2,0.8-0.8,1
						c-1.9,0.7-3.7,1.3-5.6,2c-0.7,0.3-1,0.1-1.4-0.4c-0.8-1.2-1.7-2.3-2.7-3.4c-0.3-0.3-0.8-0.6-1.2-0.8c-2.2-0.8-4-0.3-5.4,1.6
						C110.4,115,110.3,115,110.3,115.2C110.2,115.2,110.3,115.2,110.3,115.2z"/>
					<path class="st17" d="M191.2,115.7c-6.2,5.3-14.9,5-20.4,0c-4.2-3.8-5.6-10.3-3.4-16.1c2.7-6.8,9.9-11.1,17.1-10
						c9.6,1.4,14.9,11.4,11,20.3C194.6,112.2,193.1,114.1,191.2,115.7z"/>
					<path class="st17" d="M142.7,150.9c4.8,5.6,4.1,13.8-1.5,18.6c-6,5.1-15.2,4.4-20.3-1.6c-4.8-5.6-4.1-13.9,1.5-18.6
						C128.5,144.1,137.6,144.9,142.7,150.9z"/>
					<path class="st17" d="M108.5,83.4c5.5-4.3,12.9-3.5,16.9,1.9c3,4.1,2.8,10.1-0.6,14.3c-3.6,4.4-9.6,5.9-14.4,3.5
						c-5.7-2.9-7.9-10.2-4.6-15.9C106.5,85.9,107.5,84.7,108.5,83.4z"/>
				</g>
			</g>
		</g>
		<line class="st27" x1="293.6" y1="334.9" x2="397.1" y2="334.9"/>
		<line class="st27" x1="293.6" y1="358.1" x2="397.1" y2="358.1"/>
	</g>
</g>
</svg>
