<svg id="Ebene_1" data-name="Ebene 1" xmlns="http://www.w3.org/2000/svg" viewBox="0 0 396 126"><defs><style>.cls-1{fill:#01323d;}.cls-2{fill:#fce500;}.cls-3{fill:#4a4a49;}.cls-4{fill:none;}</style></defs><title>Zeichenfläche 1 Kopie 5</title><path class="cls-1" d="M49.89,34.85a5.76,5.76,0,0,1-5.72,5.62H41.62V68.94a5.63,5.63,0,0,1,5.62,5.72,5.54,5.54,0,0,1-5.62,5.61A11.37,11.37,0,0,1,30.29,68.94V40.47h-3a5.6,5.6,0,0,1-5.61-5.62,5.53,5.53,0,0,1,5.61-5.61h3V14.44A5.62,5.62,0,0,1,36,8.82a5.54,5.54,0,0,1,5.61,5.62v14.8h2.55A5.68,5.68,0,0,1,49.89,34.85Z"/><path class="cls-1" d="M107.87,54.86v20a5.45,5.45,0,0,1-5.41,5.41,5.54,5.54,0,0,1-5.31-4.38,23.22,23.22,0,0,1-13.58,4.38,23.68,23.68,0,0,1-17.35-7.45,26.1,26.1,0,0,1-6.94-18,25.78,25.78,0,0,1,6.94-18,23.52,23.52,0,0,1,17.35-7.65,23.24,23.24,0,0,1,13.58,4.49,5.54,5.54,0,0,1,5.31-4.49,5.47,5.47,0,0,1,5.41,5.51Zm-10.82,0a15,15,0,0,0-4-10.52,12.64,12.64,0,0,0-9.5-4.18,12.33,12.33,0,0,0-9.49,4.18A15,15,0,0,0,70.2,54.86a15.3,15.3,0,0,0,3.88,10.51,12.87,12.87,0,0,0,9.49,4,13.2,13.2,0,0,0,9.5-4A15.37,15.37,0,0,0,97.05,54.86Z"/><path class="cls-1" d="M124.3,54.86c0-14.19,11.84-25.52,25.93-25.62a26.9,26.9,0,0,1,16.23,5.61,5.62,5.62,0,0,1,1.12,7.56,5.44,5.44,0,0,1-7.65,1,16.3,16.3,0,0,0-9.7-3.27c-8.27,0-15.11,6.84-15.11,14.7s6.84,14.6,15.11,14.6a16.56,16.56,0,0,0,9.7-3.27,5.55,5.55,0,0,1,7.65,1.12,5.63,5.63,0,0,1-1.12,7.55,28.09,28.09,0,0,1-16.23,5.41C136.14,80.27,124.3,68.84,124.3,54.86Z"/><path class="cls-1" d="M186.16,94V34.65a5.45,5.45,0,0,1,5.41-5.41,5.59,5.59,0,0,1,5.61,4.18,25.92,25.92,0,0,1,13.89-4.18c13.57,0,24.7,11.63,24.7,25.62s-11.13,25.31-24.7,25.31A23.61,23.61,0,0,1,197.39,76V94a5.76,5.76,0,0,1-5.82,5.51A5.6,5.6,0,0,1,186.16,94Zm11.23-39.09c0,4,1.33,7.86,4,10.21a12.65,12.65,0,0,0,9.7,4.28,13.06,13.06,0,0,0,9.59-4.28,14.88,14.88,0,0,0,4-10.21,15.73,15.73,0,0,0-4-10.31,13.3,13.3,0,0,0-9.59-4.19,12.88,12.88,0,0,0-9.7,4.19A14.34,14.34,0,0,0,197.39,54.86Z"/><path class="cls-1" d="M261.49,16.48A5.51,5.51,0,0,1,256,22.09a5.57,5.57,0,0,1-5.51-5.61V14.34A5.49,5.49,0,0,1,256,8.82a5.43,5.43,0,0,1,5.51,5.52Zm0,18.47V74.76A5.43,5.43,0,0,1,256,80.27a5.49,5.49,0,0,1-5.51-5.51V35A5.45,5.45,0,0,1,256,29.34,5.39,5.39,0,0,1,261.49,35Z"/><path class="cls-1" d="M275.48,54.86c0-14.19,11.84-25.52,25.92-25.62a26.88,26.88,0,0,1,16.23,5.61,5.62,5.62,0,0,1,1.13,7.56,5.45,5.45,0,0,1-7.66,1,16.28,16.28,0,0,0-9.7-3.27c-8.27,0-15.1,6.84-15.1,14.7s6.83,14.6,15.1,14.6a16.51,16.51,0,0,0,9.7-3.27,5.56,5.56,0,0,1,7.66,1.12,5.64,5.64,0,0,1-1.13,7.55,28.07,28.07,0,0,1-16.23,5.41C287.32,80.27,275.48,68.84,275.48,54.86Z"/><path class="cls-2" d="M11.23,61a6.58,6.58,0,0,1-1.88-4.93,6.47,6.47,0,0,1,6.83-6.84A6.47,6.47,0,0,1,23,56.06a6.72,6.72,0,0,1-1.88,5,6.7,6.7,0,0,1-5,1.88A7,7,0,0,1,11.23,61Zm0,20.37a6.56,6.56,0,0,1-1.88-4.92,6.32,6.32,0,0,1,1.88-4.85,6.88,6.88,0,0,1,4.95-1.78,6.89,6.89,0,0,1,5,1.78A6.36,6.36,0,0,1,23,76.44a6.73,6.73,0,0,1-1.88,5,6.7,6.7,0,0,1-5,1.88A7,7,0,0,1,11.23,81.36ZM31.74,40.47a6.59,6.59,0,0,1-1.88-4.92,6.46,6.46,0,0,1,6.84-6.84,6.46,6.46,0,0,1,6.84,6.84,6.46,6.46,0,0,1-6.84,6.84A7,7,0,0,1,31.74,40.47Zm0,20.52a6.62,6.62,0,0,1-1.88-4.93,6.47,6.47,0,0,1,6.84-6.84,6.84,6.84,0,1,1,0,13.68A7,7,0,0,1,31.74,61Z"/><path class="cls-2" d="M70.55,41.91a7,7,0,0,1-5-1.92,6.56,6.56,0,0,1-1.88-4.92,6.84,6.84,0,1,1,13.67,0,6.46,6.46,0,0,1-6.83,6.84Z"/><path class="cls-2" d="M126.82,42.11a7,7,0,0,1-4.95-1.91A6.56,6.56,0,0,1,120,35.28a6.84,6.84,0,1,1,13.68,0,6.46,6.46,0,0,1-6.84,6.83Zm20.52,0a7,7,0,0,1-5-1.91,6.59,6.59,0,0,1-1.88-4.92,6.84,6.84,0,1,1,13.68,0,6.46,6.46,0,0,1-6.84,6.83Z"/><path class="cls-2" d="M176,40.68a6.62,6.62,0,0,1-1.88-4.93,6.84,6.84,0,1,1,13.68,0A6.46,6.46,0,0,1,181,42.59,7,7,0,0,1,176,40.68Zm0,20.51a6.59,6.59,0,0,1-1.88-4.92,6.84,6.84,0,1,1,13.68,0A6.46,6.46,0,0,1,181,63.11,7.05,7.05,0,0,1,176,61.19Zm0,20.38a6.59,6.59,0,0,1-1.88-4.92A6.38,6.38,0,0,1,176,71.79a7.8,7.8,0,0,1,9.92,0,6.38,6.38,0,0,1,1.88,4.86A6.46,6.46,0,0,1,181,83.48,7,7,0,0,1,176,81.57Zm20.52-40.89a6.58,6.58,0,0,1-1.88-4.93,6.84,6.84,0,1,1,13.67,0,6.46,6.46,0,0,1-6.84,6.84A7,7,0,0,1,196.54,40.68Z"/><path class="cls-2" d="M230.93,60.71a6.59,6.59,0,0,1-1.88-4.92,6.84,6.84,0,1,1,13.68,0,6.46,6.46,0,0,1-6.84,6.84A7,7,0,0,1,230.93,60.71ZM251.45,40.2a6.56,6.56,0,0,1-1.88-4.92,6.84,6.84,0,1,1,13.67,0,6.46,6.46,0,0,1-6.84,6.83A7,7,0,0,1,251.45,40.2Z"/><path class="cls-2" d="M290.53,42.11a7,7,0,0,1-5-1.91,6.56,6.56,0,0,1-1.88-4.92,6.84,6.84,0,1,1,13.67,0,6.46,6.46,0,0,1-6.83,6.83Zm20.51,0a7,7,0,0,1-5-1.91,6.59,6.59,0,0,1-1.88-4.92,6.84,6.84,0,1,1,13.68,0A6.46,6.46,0,0,1,311,42.11Z"/><path class="cls-3" d="M217,100.83h-4.36v3.39h5v1h-6.31V95.73h6.24v1h-5v3.08H217Z"/><path class="cls-3" d="M222.29,99.31l-.66,0a1.48,1.48,0,0,0-.86.24,1.61,1.61,0,0,0-.54.68v5H219V98.17h1.14l.13,1a2.39,2.39,0,0,1,.74-.85,1.71,1.71,0,0,1,1-.31l.27,0,.22,0Z"/><path class="cls-3" d="M225.38,96.46v1.71h1.34v1h-1.34v4.29a.93.93,0,0,0,.21.7.72.72,0,0,0,.54.21l.25,0,.24-.07.17.89a1.34,1.34,0,0,1-.43.19,2.08,2.08,0,0,1-.55.07,1.64,1.64,0,0,1-1.25-.47,2.06,2.06,0,0,1-.47-1.49V99.12H223v-1h1.12V96.46Z"/><path class="cls-3" d="M232.69,105.24c0-.22-.08-.4-.1-.57a4,4,0,0,1,0-.49,3,3,0,0,1-.94.85,2.36,2.36,0,0,1-1.24.34,2.32,2.32,0,0,1-1.69-.56,2.11,2.11,0,0,1-.57-1.56,1.82,1.82,0,0,1,.82-1.58,3.8,3.8,0,0,1,2.22-.57h1.4v-.7a1.31,1.31,0,0,0-.38-1,1.49,1.49,0,0,0-1.07-.36,1.55,1.55,0,0,0-1,.32.94.94,0,0,0-.39.76h-1.23v0a1.7,1.7,0,0,1,.73-1.41,3,3,0,0,1,2-.64,2.88,2.88,0,0,1,1.93.61,2.15,2.15,0,0,1,.73,1.76v3.4c0,.26,0,.5,0,.73a4.15,4.15,0,0,0,.15.7Zm-2.13-.95a2.31,2.31,0,0,0,1.26-.36,1.7,1.7,0,0,0,.73-.82V102H231.1a1.88,1.88,0,0,0-1.24.39,1.19,1.19,0,0,0-.47.92,1,1,0,0,0,.3.75A1.23,1.23,0,0,0,230.56,104.29Z"/><path class="cls-3" d="M239.85,103.36a.85.85,0,0,0-.32-.7,3,3,0,0,0-1.22-.48,5.18,5.18,0,0,1-1.94-.76,1.53,1.53,0,0,1-.65-1.31,1.82,1.82,0,0,1,.73-1.46,3.33,3.33,0,0,1,3.87,0,1.87,1.87,0,0,1,.7,1.54l0,0h-1.22a1.12,1.12,0,0,0-.39-.83,1.43,1.43,0,0,0-1-.37,1.48,1.48,0,0,0-1,.3,1,1,0,0,0-.33.73.79.79,0,0,0,.29.66,3.13,3.13,0,0,0,1.19.43,5.13,5.13,0,0,1,2,.78,1.58,1.58,0,0,1,.65,1.32,1.8,1.8,0,0,1-.76,1.52,3.18,3.18,0,0,1-2,.58,3.1,3.1,0,0,1-2.13-.68,2,2,0,0,1-.74-1.6l0,0h1.22a1.21,1.21,0,0,0,.51,1,2,2,0,0,0,1.12.31,1.75,1.75,0,0,0,1.07-.28A.84.84,0,0,0,239.85,103.36Z"/><path class="cls-3" d="M244.48,96.46v1.71h1.34v1h-1.34v4.29a1,1,0,0,0,.2.7.74.74,0,0,0,.55.21l.25,0,.23-.07.17.89a1.18,1.18,0,0,1-.42.19,2.1,2.1,0,0,1-.56.07,1.62,1.62,0,0,1-1.24-.47,2.06,2.06,0,0,1-.47-1.49V99.12h-1.12v-1h1.12V96.46Z"/><path class="cls-3" d="M253.48,102a3.9,3.9,0,0,1-.73,2.47,2.44,2.44,0,0,1-2,.93,2.58,2.58,0,0,1-1.22-.27,2.26,2.26,0,0,1-.86-.8l-.15.94h-1.05V95.05h1.28v4a2.12,2.12,0,0,1,.83-.72,2.47,2.47,0,0,1,1.15-.25,2.37,2.37,0,0,1,2,1,4.71,4.71,0,0,1,.73,2.75Zm-1.28-.14a3.87,3.87,0,0,0-.45-2,1.49,1.49,0,0,0-1.36-.77,1.74,1.74,0,0,0-1,.29,2.16,2.16,0,0,0-.65.78v3.07a2.14,2.14,0,0,0,.65.81,1.67,1.67,0,0,0,1,.3,1.54,1.54,0,0,0,1.35-.65,2.93,2.93,0,0,0,.45-1.71Z"/><path class="cls-3" d="M259.43,105.24l-.1-.57a4,4,0,0,1,0-.49,3,3,0,0,1-.94.85,2.36,2.36,0,0,1-1.24.34,2.27,2.27,0,0,1-1.68-.56,2.07,2.07,0,0,1-.58-1.56,1.82,1.82,0,0,1,.82-1.58,3.84,3.84,0,0,1,2.22-.57h1.4v-.7a1.31,1.31,0,0,0-.38-1,1.49,1.49,0,0,0-1.07-.36,1.57,1.57,0,0,0-1,.32.94.94,0,0,0-.39.76h-1.23v0a1.7,1.7,0,0,1,.73-1.41,3,3,0,0,1,2-.64,2.93,2.93,0,0,1,1.94.61,2.18,2.18,0,0,1,.73,1.76v3.4a5.64,5.64,0,0,0,0,.73,3.34,3.34,0,0,0,.14.7Zm-2.13-.95a2.31,2.31,0,0,0,1.26-.36,1.7,1.7,0,0,0,.73-.82V102h-1.44a1.89,1.89,0,0,0-1.25.39,1.19,1.19,0,0,0-.47.92,1,1,0,0,0,.3.75A1.26,1.26,0,0,0,257.3,104.29Z"/><path class="cls-3" d="M265.83,99.31l-.66,0a1.48,1.48,0,0,0-.86.24,1.61,1.61,0,0,0-.54.68v5h-1.28V98.17h1.15l.12,1a2.39,2.39,0,0,1,.74-.85,1.69,1.69,0,0,1,1-.31l.27,0,.22,0Z"/><path class="cls-3" d="M269.92,105.37a3,3,0,0,1-2.35-1,3.69,3.69,0,0,1-.87-2.55v-.29a3.63,3.63,0,0,1,.9-2.51,2.76,2.76,0,0,1,2.12-1,2.7,2.7,0,0,1,2.17.86,3.48,3.48,0,0,1,.73,2.3v.8H268l0,0a2.86,2.86,0,0,0,.52,1.67,1.65,1.65,0,0,0,1.39.65,3.35,3.35,0,0,0,1.15-.18,2.7,2.7,0,0,0,.85-.52l.5.84a2.8,2.8,0,0,1-1,.62A3.92,3.92,0,0,1,269.92,105.37Zm-.2-6.32a1.4,1.4,0,0,0-1.1.54,2.65,2.65,0,0,0-.56,1.37v0h3.26v-.17a2,2,0,0,0-.4-1.26A1.45,1.45,0,0,0,269.72,99.05Z"/><path class="cls-3" d="M284.6,104a3.13,3.13,0,0,1-1.18,1,4.71,4.71,0,0,1-2.17.43,3.84,3.84,0,0,1-2.82-1.09,3.76,3.76,0,0,1-1.11-2.82v-2a3.9,3.9,0,0,1,1-2.82A3.51,3.51,0,0,1,281,95.59a3.84,3.84,0,0,1,2.57.8,2.71,2.71,0,0,1,1,2.07l0,0h-1.23a1.9,1.9,0,0,0-.63-1.36A2.31,2.31,0,0,0,281,96.6a2.13,2.13,0,0,0-1.75.82,3.12,3.12,0,0,0-.67,2.07v2a3,3,0,0,0,.75,2.08,2.41,2.41,0,0,0,1.89.82,3.6,3.6,0,0,0,1.33-.21,1.89,1.89,0,0,0,.73-.49V101.5h-2.08v-1h3.37Z"/><path class="cls-3" d="M290,99.31l-.66,0a1.5,1.5,0,0,0-.86.24,1.61,1.61,0,0,0-.54.68v5h-1.28V98.17h1.15l.12,1a2.39,2.39,0,0,1,.74-.85,1.73,1.73,0,0,1,1-.31l.27,0,.22,0Z"/><path class="cls-3" d="M295.6,105.24a5.32,5.32,0,0,1-.1-.57,4.07,4.07,0,0,1-.05-.49,3,3,0,0,1-.93.85,2.4,2.4,0,0,1-1.25.34,2.31,2.31,0,0,1-1.68-.56,2.07,2.07,0,0,1-.58-1.56,1.84,1.84,0,0,1,.82-1.58,3.86,3.86,0,0,1,2.23-.57h1.39v-.7a1.3,1.3,0,0,0-.37-1,1.52,1.52,0,0,0-1.08-.36,1.57,1.57,0,0,0-1,.32,1,1,0,0,0-.38.76h-1.23v0a1.69,1.69,0,0,1,.72-1.41,3,3,0,0,1,2-.64,2.9,2.9,0,0,1,1.93.61,2.15,2.15,0,0,1,.73,1.76v3.4a5.64,5.64,0,0,0,0,.73,4.13,4.13,0,0,0,.14.7Zm-2.14-.95a2.26,2.26,0,0,0,1.26-.36,1.65,1.65,0,0,0,.73-.82V102H294a1.86,1.86,0,0,0-1.24.39,1.16,1.16,0,0,0-.47.92,1,1,0,0,0,.29.75A1.26,1.26,0,0,0,293.46,104.29Z"/><path class="cls-3" d="M299.19,105.24V99.12h-1.11v-1h1.11v-.9a2.38,2.38,0,0,1,.59-1.74,2.13,2.13,0,0,1,1.65-.62,2.25,2.25,0,0,1,.44,0,3.68,3.68,0,0,1,.5.1l-.15,1-.29,0-.35,0a1,1,0,0,0-.83.34,1.46,1.46,0,0,0-.28,1v.9h1.47v1h-1.47v6.12Z"/><path class="cls-3" d="M304.7,96.36h-1.29V95.05h1.29Zm0,8.88h-1.29V98.17h1.29Z"/><path class="cls-3" d="M308.85,102H308v3.28h-1.28V95.05H308V101h.83l1.93-2.78h1.54l-2.42,3.21,2.77,3.86h-1.52Z"/><path class="cls-3" d="M316.42,105.37a3,3,0,0,1-2.35-1,3.69,3.69,0,0,1-.87-2.55v-.29a3.63,3.63,0,0,1,.9-2.51,2.77,2.77,0,0,1,2.13-1,2.69,2.69,0,0,1,2.16.86,3.48,3.48,0,0,1,.73,2.3v.8h-4.59l0,0a2.86,2.86,0,0,0,.52,1.67,1.65,1.65,0,0,0,1.39.65,3.35,3.35,0,0,0,1.15-.18,2.7,2.7,0,0,0,.85-.52l.5.84a2.8,2.8,0,0,1-1,.62A3.92,3.92,0,0,1,316.42,105.37Zm-.19-6.32a1.41,1.41,0,0,0-1.11.54,2.65,2.65,0,0,0-.56,1.37v0h3.26v-.17a2,2,0,0,0-.4-1.26A1.44,1.44,0,0,0,316.23,99.05Z"/><path class="cls-3" d="M321.75,98.17l.1,1a2.53,2.53,0,0,1,.88-.87,2.61,2.61,0,0,1,3,.36,2.91,2.91,0,0,1,.63,2.07v4.46h-1.29V100.8a1.88,1.88,0,0,0-.37-1.32,1.43,1.43,0,0,0-1.12-.4,1.84,1.84,0,0,0-1,.27,2,2,0,0,0-.68.73v5.16H320.6V98.17Z"/><path class="cls-3" d="M332.15,105.24V99.12h-1.1v-1h1.1v-.9a2.43,2.43,0,0,1,.59-1.74,2.13,2.13,0,0,1,1.65-.62,2.28,2.28,0,0,1,.45,0,4,4,0,0,1,.5.1l-.16,1-.28,0-.35,0a1,1,0,0,0-.84.34,1.51,1.51,0,0,0-.27,1v.9h1.47v1h-1.47v6.12Z"/><path class="cls-3" d="M340.76,104.19a2.42,2.42,0,0,1-.86.88,2.38,2.38,0,0,1-1.2.3,2.27,2.27,0,0,1-1.81-.73,3.45,3.45,0,0,1-.64-2.3V98.17h1.28v4.18a2.55,2.55,0,0,0,.34,1.55,1.2,1.2,0,0,0,1,.43,2.09,2.09,0,0,0,1.14-.28,1.68,1.68,0,0,0,.67-.79V98.17H342v7.07h-1.16ZM338.31,97h-1.43v-1.3h1.43Zm3.07,0H340v-1.3h1.43Z"/><path class="cls-3" d="M347.26,99.31l-.66,0a1.48,1.48,0,0,0-.86.24,1.61,1.61,0,0,0-.54.68v5h-1.28V98.17h1.15l.12,1a2.39,2.39,0,0,1,.74-.85,1.71,1.71,0,0,1,1-.31l.27,0,.22,0Z"/><path class="cls-3" d="M357.94,102a3.9,3.9,0,0,1-.73,2.47,2.44,2.44,0,0,1-2,.93,2.58,2.58,0,0,1-1.22-.27,2.17,2.17,0,0,1-.85-.8l-.16.94h-1V95.05h1.28v4a2.19,2.19,0,0,1,.83-.72,2.47,2.47,0,0,1,1.15-.25,2.37,2.37,0,0,1,2,1,4.71,4.71,0,0,1,.73,2.75Zm-1.28-.14a3.87,3.87,0,0,0-.45-2,1.48,1.48,0,0,0-1.36-.77,1.74,1.74,0,0,0-1,.29,2.16,2.16,0,0,0-.65.78v3.07a2.14,2.14,0,0,0,.65.81,1.67,1.67,0,0,0,1,.3,1.53,1.53,0,0,0,1.35-.65,2.93,2.93,0,0,0,.45-1.71Z"/><path class="cls-3" d="M360.94,105.24h-1.28V95.05h1.28Z"/><path class="cls-3" d="M364.35,96.36h-1.28V95.05h1.28Zm0,8.88h-1.28V98.17h1.28Z"/><path class="cls-3" d="M367.52,98.17l.09,1a2.64,2.64,0,0,1,.89-.87,2.61,2.61,0,0,1,3,.36,2.91,2.91,0,0,1,.63,2.07v4.46h-1.29V100.8a1.88,1.88,0,0,0-.37-1.32,1.43,1.43,0,0,0-1.12-.4,1.81,1.81,0,0,0-1,.27,2,2,0,0,0-.68.73v5.16h-1.29V98.17Z"/><path class="cls-3" d="M373.72,101.83a4.78,4.78,0,0,1,.73-2.75,2.37,2.37,0,0,1,2-1,2.41,2.41,0,0,1,1.1.23,2.18,2.18,0,0,1,.82.66V95.05h1.29v10.19h-1.05l-.15-.87a2.34,2.34,0,0,1-.85.75,2.58,2.58,0,0,1-1.17.25,2.45,2.45,0,0,1-2-.93,4,4,0,0,1-.73-2.47ZM375,102a3,3,0,0,0,.44,1.72,1.54,1.54,0,0,0,1.36.64,1.72,1.72,0,0,0,1-.26,2,2,0,0,0,.64-.73V100a2,2,0,0,0-.64-.7,1.71,1.71,0,0,0-.95-.26,1.48,1.48,0,0,0-1.37.77,4,4,0,0,0-.44,2Z"/><path class="cls-3" d="M384.59,105.37a3,3,0,0,1-2.34-1,3.64,3.64,0,0,1-.88-2.55v-.29a3.63,3.63,0,0,1,.9-2.51,2.77,2.77,0,0,1,2.13-1,2.69,2.69,0,0,1,2.16.86,3.43,3.43,0,0,1,.73,2.3v.8h-4.58l0,0a2.79,2.79,0,0,0,.51,1.67,1.66,1.66,0,0,0,1.39.65,3.35,3.35,0,0,0,1.15-.18,2.7,2.7,0,0,0,.85-.52l.51.84a3,3,0,0,1-1,.62A4,4,0,0,1,384.59,105.37Zm-.19-6.32a1.42,1.42,0,0,0-1.11.54,2.65,2.65,0,0,0-.56,1.37l0,0H386v-.17a2,2,0,0,0-.41-1.26A1.44,1.44,0,0,0,384.4,99.05Z"/><path class="cls-3" d="M215.57,120.54a2.27,2.27,0,0,1-2.06,1.19,2.27,2.27,0,0,1-1.8-.74,3.43,3.43,0,0,1-.65-2.3v-4.17h1.29v4.18a2.69,2.69,0,0,0,.33,1.56,1.25,1.25,0,0,0,1,.42,2.06,2.06,0,0,0,1.13-.28,1.73,1.73,0,0,0,.68-.78v-5.1h1.29v7.07h-1.16Z"/><path class="cls-3" d="M219.84,114.52l.09,1a2.64,2.64,0,0,1,.89-.87,2.61,2.61,0,0,1,3,.36,3,3,0,0,1,.63,2.07v4.46h-1.29v-4.44a1.88,1.88,0,0,0-.37-1.32,1.49,1.49,0,0,0-1.13-.39,1.77,1.77,0,0,0-1,.26,2,2,0,0,0-.68.73v5.16h-1.29v-7.07Z"/><path class="cls-3" d="M226,118.19a4.66,4.66,0,0,1,.73-2.75,2.33,2.33,0,0,1,2-1,2.57,2.57,0,0,1,1.1.23,2.26,2.26,0,0,1,.82.66V111.4H232v10.19h-1l-.15-.87a2.42,2.42,0,0,1-.85.75,2.58,2.58,0,0,1-1.17.26,2.44,2.44,0,0,1-2-.94,3.9,3.9,0,0,1-.73-2.47Zm1.29.13a3,3,0,0,0,.43,1.72,1.54,1.54,0,0,0,1.36.64,1.73,1.73,0,0,0,1-.26,2,2,0,0,0,.64-.73v-3.3a2.16,2.16,0,0,0-.64-.7,1.73,1.73,0,0,0-1-.25,1.46,1.46,0,0,0-1.37.76,3.89,3.89,0,0,0-.44,2Z"/><path class="cls-3" d="M241.33,119.71a.88.88,0,0,0-.32-.7,3.23,3.23,0,0,0-1.23-.48,5.19,5.19,0,0,1-1.93-.76,1.52,1.52,0,0,1-.65-1.31,1.82,1.82,0,0,1,.73-1.46,2.86,2.86,0,0,1,1.91-.61,2.9,2.9,0,0,1,2,.63,1.88,1.88,0,0,1,.69,1.55v0h-1.23a1.14,1.14,0,0,0-.39-.83,1.43,1.43,0,0,0-1-.37,1.48,1.48,0,0,0-1,.3,1,1,0,0,0-.34.73.8.8,0,0,0,.3.66,3.06,3.06,0,0,0,1.19.43,5.13,5.13,0,0,1,2,.78,1.58,1.58,0,0,1,.65,1.32,1.8,1.8,0,0,1-.76,1.52,3.18,3.18,0,0,1-2,.59,3.1,3.1,0,0,1-2.13-.69,2,2,0,0,1-.74-1.6v0h1.23a1.17,1.17,0,0,0,.51,1,2,2,0,0,0,1.12.31,1.84,1.84,0,0,0,1.07-.27A.86.86,0,0,0,241.33,119.71Z"/><path class="cls-3" d="M247.15,121.73a3,3,0,0,1-2.35-1,3.69,3.69,0,0,1-.87-2.55v-.29a3.63,3.63,0,0,1,.9-2.51,2.77,2.77,0,0,1,2.13-1,2.69,2.69,0,0,1,2.16.86,3.43,3.43,0,0,1,.73,2.3v.81h-4.59v0a2.76,2.76,0,0,0,.51,1.67,1.64,1.64,0,0,0,1.39.65,3.35,3.35,0,0,0,1.15-.18,2.7,2.7,0,0,0,.85-.52l.5.84a3,3,0,0,1-1,.63A4.13,4.13,0,0,1,247.15,121.73ZM247,115.4a1.4,1.4,0,0,0-1.11.55,2.58,2.58,0,0,0-.56,1.36v0h3.26v-.17a2,2,0,0,0-.4-1.26A1.44,1.44,0,0,0,247,115.4Z"/><path class="cls-3" d="M252.58,115.47a2.64,2.64,0,0,1,.9-.8,2.57,2.57,0,0,1,1.18-.28,2.3,2.3,0,0,1,1.76.68,3,3,0,0,1,.63,2.09v4.43h-1.29v-4.44a1.9,1.9,0,0,0-.37-1.3,1.47,1.47,0,0,0-1.12-.41,1.87,1.87,0,0,0-1,.25,2,2,0,0,0-.72.68v5.22h-1.29V111.4h1.29Z"/><path class="cls-3" d="M264.93,118.32a3.9,3.9,0,0,1-.73,2.47,2.44,2.44,0,0,1-2,.94,2.61,2.61,0,0,1-1.22-.27,2.32,2.32,0,0,1-.85-.8l-.16.93H258.9V111.4h1.29v4a2.09,2.09,0,0,1,.82-.72,2.47,2.47,0,0,1,1.15-.25,2.34,2.34,0,0,1,2,1,4.66,4.66,0,0,1,.73,2.75Zm-1.28-.13a3.93,3.93,0,0,0-.45-2,1.47,1.47,0,0,0-1.36-.76,1.67,1.67,0,0,0-1,.29,2,2,0,0,0-.64.78v3.06a2.14,2.14,0,0,0,.64.82,1.73,1.73,0,0,0,1,.29,1.5,1.5,0,0,0,1.35-.65,2.93,2.93,0,0,0,.45-1.71Z"/><path class="cls-3" d="M269.44,121.73a3,3,0,0,1-2.35-1,3.69,3.69,0,0,1-.88-2.55v-.29a3.63,3.63,0,0,1,.9-2.51,2.77,2.77,0,0,1,2.13-1,2.69,2.69,0,0,1,2.16.86,3.43,3.43,0,0,1,.73,2.3v.81h-4.58l0,0a2.76,2.76,0,0,0,.51,1.67,1.64,1.64,0,0,0,1.4.65,3.33,3.33,0,0,0,1.14-.18,2.59,2.59,0,0,0,.85-.52l.51.84a3.17,3.17,0,0,1-1,.63A4.2,4.2,0,0,1,269.44,121.73Zm-.2-6.33a1.37,1.37,0,0,0-1.1.55,2.51,2.51,0,0,0-.57,1.36l0,0h3.26v-.17a2,2,0,0,0-.41-1.26A1.44,1.44,0,0,0,269.24,115.4Z"/><path class="cls-3" d="M274.86,115.47a2.74,2.74,0,0,1,.9-.8,2.6,2.6,0,0,1,1.18-.28,2.3,2.3,0,0,1,1.76.68,3,3,0,0,1,.63,2.09v4.43h-1.28v-4.44a1.9,1.9,0,0,0-.38-1.3,1.45,1.45,0,0,0-1.12-.41,1.87,1.87,0,0,0-1,.25,2,2,0,0,0-.72.68v5.22h-1.28V111.4h1.28Z"/><path class="cls-3" d="M282.57,112.71h-1.28V111.4h1.28Zm0,8.88h-1.28v-7.07h1.28Z"/><path class="cls-3" d="M285.7,114.52l.09,1a2.64,2.64,0,0,1,.89-.87,2.61,2.61,0,0,1,3,.36,3,3,0,0,1,.63,2.07v4.46H289v-4.44a1.88,1.88,0,0,0-.37-1.32,1.47,1.47,0,0,0-1.13-.39,1.8,1.8,0,0,0-1,.26,2.07,2.07,0,0,0-.68.73v5.16h-1.29v-7.07Z"/><path class="cls-3" d="M291.86,118.19a4.66,4.66,0,0,1,.73-2.75,2.35,2.35,0,0,1,2-1,2.54,2.54,0,0,1,1.1.23,2.18,2.18,0,0,1,.82.66V111.4h1.29v10.19h-1l-.15-.87a2.34,2.34,0,0,1-.85.75,2.58,2.58,0,0,1-1.17.26,2.46,2.46,0,0,1-2-.94,4,4,0,0,1-.73-2.47Zm1.29.13a3,3,0,0,0,.44,1.72,1.51,1.51,0,0,0,1.35.64,1.73,1.73,0,0,0,1-.26,1.91,1.91,0,0,0,.64-.73v-3.3a2.05,2.05,0,0,0-.64-.7,1.7,1.7,0,0,0-1-.25,1.46,1.46,0,0,0-1.37.76,4,4,0,0,0-.44,2Z"/><path class="cls-3" d="M302.69,121.73a3,3,0,0,1-2.35-1,3.69,3.69,0,0,1-.87-2.55v-.29a3.63,3.63,0,0,1,.9-2.51,2.77,2.77,0,0,1,2.13-1,2.69,2.69,0,0,1,2.16.86,3.43,3.43,0,0,1,.73,2.3v.81h-4.58l0,0a2.76,2.76,0,0,0,.51,1.67,1.64,1.64,0,0,0,1.39.65,3.35,3.35,0,0,0,1.15-.18,2.7,2.7,0,0,0,.85-.52l.5.84a3,3,0,0,1-1,.63A4.22,4.22,0,0,1,302.69,121.73Zm-.19-6.33a1.4,1.4,0,0,0-1.11.55,2.58,2.58,0,0,0-.56,1.36v0h3.26v-.17a2,2,0,0,0-.4-1.26A1.44,1.44,0,0,0,302.5,115.4Z"/><path class="cls-3" d="M310.18,115.66l-.66,0a1.48,1.48,0,0,0-.86.24,1.61,1.61,0,0,0-.54.68v5h-1.29v-7.07H308l.13,1a2.48,2.48,0,0,1,.74-.85,1.69,1.69,0,0,1,1-.31l.27,0,.22,0Z"/><path class="cls-3" d="M313.23,112.82v1.7h1.34v1h-1.34v4.3a1,1,0,0,0,.21.7.73.73,0,0,0,.54.2l.25,0a1.28,1.28,0,0,0,.23-.06l.17.88a1,1,0,0,1-.42.19,2.1,2.1,0,0,1-.56.08,1.64,1.64,0,0,1-1.24-.48,2,2,0,0,1-.47-1.48v-4.3h-1.12v-1h1.12v-1.7Z"/><path class="cls-3" d="M319.09,121.73a3,3,0,0,1-2.35-1,3.69,3.69,0,0,1-.87-2.55v-.29a3.63,3.63,0,0,1,.9-2.51,2.75,2.75,0,0,1,2.12-1,2.7,2.7,0,0,1,2.17.86,3.48,3.48,0,0,1,.73,2.3v.81H317.2l0,0a2.77,2.77,0,0,0,.52,1.67,1.63,1.63,0,0,0,1.39.65,3.35,3.35,0,0,0,1.15-.18,2.81,2.81,0,0,0,.85-.52l.5.84a3,3,0,0,1-1,.63A4.13,4.13,0,0,1,319.09,121.73Zm-.2-6.33a1.37,1.37,0,0,0-1.1.55,2.5,2.5,0,0,0-.56,1.36v0h3.26v-.17a2,2,0,0,0-.4-1.26A1.46,1.46,0,0,0,318.89,115.4Z"/><path class="cls-3" d="M328.45,112.08l3,7.73h0l3-7.73h1.64v9.51h-1.28v-3.76L335,114h0l-3.08,7.64h-.85L328,114h0l.13,3.85v3.76H326.8v-9.51Z"/><path class="cls-3" d="M341.24,121.73a3,3,0,0,1-2.35-1,3.69,3.69,0,0,1-.87-2.55v-.29a3.63,3.63,0,0,1,.9-2.51,2.77,2.77,0,0,1,2.13-1,2.69,2.69,0,0,1,2.16.86,3.43,3.43,0,0,1,.73,2.3v.81h-4.59v0a2.76,2.76,0,0,0,.51,1.67,1.64,1.64,0,0,0,1.39.65,3.35,3.35,0,0,0,1.15-.18,2.7,2.7,0,0,0,.85-.52l.5.84a3,3,0,0,1-1,.63A4.13,4.13,0,0,1,341.24,121.73Zm-.19-6.33a1.4,1.4,0,0,0-1.11.55,2.58,2.58,0,0,0-.56,1.36v0h3.26v-.17a2,2,0,0,0-.4-1.26A1.44,1.44,0,0,0,341.05,115.4Z"/><path class="cls-3" d="M346.53,114.52l.1,1a2.61,2.61,0,0,1,.88-.87,2.34,2.34,0,0,1,1.21-.31,2.3,2.3,0,0,1,1.77.67,3,3,0,0,1,.63,2.07v4.46h-1.29v-4.44a1.88,1.88,0,0,0-.37-1.32,1.47,1.47,0,0,0-1.12-.39,1.83,1.83,0,0,0-1,.26,2.07,2.07,0,0,0-.68.73v5.16h-1.29v-7.07Z"/><path class="cls-3" d="M357.1,119.71a.86.86,0,0,0-.33-.7,3.09,3.09,0,0,0-1.22-.48,5.18,5.18,0,0,1-1.94-.76,1.54,1.54,0,0,1-.65-1.31,1.85,1.85,0,0,1,.73-1.46,3.33,3.33,0,0,1,3.87,0,1.89,1.89,0,0,1,.7,1.55v0H357a1.14,1.14,0,0,0-.39-.83,1.46,1.46,0,0,0-1-.37,1.48,1.48,0,0,0-1,.3,1,1,0,0,0-.33.73.82.82,0,0,0,.29.66,3.2,3.2,0,0,0,1.2.43,5.14,5.14,0,0,1,2,.78,1.56,1.56,0,0,1,.65,1.32,1.8,1.8,0,0,1-.76,1.52,3.16,3.16,0,0,1-2,.59,3.1,3.1,0,0,1-2.13-.69,2,2,0,0,1-.73-1.6v0H354a1.17,1.17,0,0,0,.51,1,2,2,0,0,0,1.11.31,1.88,1.88,0,0,0,1.08-.27A.86.86,0,0,0,357.1,119.71Z"/><path class="cls-3" d="M362.86,120.71a1.76,1.76,0,0,0,1.13-.39,1.21,1.21,0,0,0,.48-1h1.16v0a2,2,0,0,1-.81,1.62,3,3,0,0,1-2,.72,2.87,2.87,0,0,1-2.36-1,3.9,3.9,0,0,1-.82-2.53v-.27a3.89,3.89,0,0,1,.82-2.52,3.23,3.23,0,0,1,4.39-.28,2.29,2.29,0,0,1,.76,1.8v0h-1.17a1.5,1.5,0,0,0-.45-1.1,1.76,1.76,0,0,0-2.61.27,3.44,3.44,0,0,0-.43,1.79v.27a3.43,3.43,0,0,0,.43,1.8A1.56,1.56,0,0,0,362.86,120.71Z"/><path class="cls-3" d="M368.37,115.47a2.74,2.74,0,0,1,.9-.8,2.6,2.6,0,0,1,1.18-.28,2.3,2.3,0,0,1,1.76.68,3,3,0,0,1,.63,2.09v4.43h-1.29v-4.44a1.9,1.9,0,0,0-.37-1.3,1.47,1.47,0,0,0-1.12-.41,1.87,1.87,0,0,0-1,.25,2,2,0,0,0-.72.68v5.22h-1.28V111.4h1.28Z"/><path class="cls-3" d="M377.62,121.73a3,3,0,0,1-2.35-1,3.69,3.69,0,0,1-.87-2.55v-.29a3.63,3.63,0,0,1,.9-2.51,2.77,2.77,0,0,1,2.13-1,2.69,2.69,0,0,1,2.16.86,3.43,3.43,0,0,1,.73,2.3v.81h-4.59v0a2.76,2.76,0,0,0,.51,1.67,1.64,1.64,0,0,0,1.39.65,3.35,3.35,0,0,0,1.15-.18,2.7,2.7,0,0,0,.85-.52l.5.84a3,3,0,0,1-1,.63A4.13,4.13,0,0,1,377.62,121.73Zm-.19-6.33a1.4,1.4,0,0,0-1.11.55,2.58,2.58,0,0,0-.56,1.36v0H379v-.17a2,2,0,0,0-.4-1.26A1.44,1.44,0,0,0,377.43,115.4Z"/><path class="cls-3" d="M382.91,114.52l.1,1a2.53,2.53,0,0,1,.88-.87,2.34,2.34,0,0,1,1.21-.31,2.3,2.3,0,0,1,1.77.67,3,3,0,0,1,.63,2.07v4.46h-1.29v-4.44a1.88,1.88,0,0,0-.37-1.32,1.47,1.47,0,0,0-1.12-.39,1.83,1.83,0,0,0-1,.26,2.07,2.07,0,0,0-.68.73v5.16h-1.29v-7.07Z"/><rect class="cls-4" x="197.39" y="45.67" width="27.25" height="16.96"/></svg>